<?xml version="1.0" standalone="no"?>
<svg xmlns:xlink="http://www.w3.org/1999/xlink" id="wave" style="transform:rotate(180deg); transition: 0.3s" viewBox="0 0 1440 330" version="1.1" xmlns="http://www.w3.org/2000/svg"><defs><linearGradient id="sw-gradient-0" x1="0" x2="0" y1="1" y2="0"><stop stop-color="rgba(70, 127, 214, 1)" offset="0%"/><stop stop-color="rgba(70, 127, 214, 1)" offset="100%"/></linearGradient></defs><path style="transform:translate(0, 0px); opacity:1" fill="url(#sw-gradient-0)" d="M0,99L60,115.5C120,132,240,165,360,170.5C480,176,600,154,720,137.5C840,121,960,110,1080,137.5C1200,165,1320,231,1440,225.5C1560,220,1680,143,1800,137.5C1920,132,2040,198,2160,198C2280,198,2400,132,2520,126.5C2640,121,2760,176,2880,192.5C3000,209,3120,187,3240,176C3360,165,3480,165,3600,154C3720,143,3840,121,3960,132C4080,143,4200,187,4320,214.5C4440,242,4560,253,4680,214.5C4800,176,4920,88,5040,88C5160,88,5280,176,5400,192.5C5520,209,5640,154,5760,143C5880,132,6000,165,6120,192.5C6240,220,6360,242,6480,236.5C6600,231,6720,198,6840,170.5C6960,143,7080,121,7200,93.5C7320,66,7440,33,7560,22C7680,11,7800,22,7920,55C8040,88,8160,143,8280,137.5C8400,132,8520,66,8580,33L8640,0L8640,330L8580,330C8520,330,8400,330,8280,330C8160,330,8040,330,7920,330C7800,330,7680,330,7560,330C7440,330,7320,330,7200,330C7080,330,6960,330,6840,330C6720,330,6600,330,6480,330C6360,330,6240,330,6120,330C6000,330,5880,330,5760,330C5640,330,5520,330,5400,330C5280,330,5160,330,5040,330C4920,330,4800,330,4680,330C4560,330,4440,330,4320,330C4200,330,4080,330,3960,330C3840,330,3720,330,3600,330C3480,330,3360,330,3240,330C3120,330,3000,330,2880,330C2760,330,2640,330,2520,330C2400,330,2280,330,2160,330C2040,330,1920,330,1800,330C1680,330,1560,330,1440,330C1320,330,1200,330,1080,330C960,330,840,330,720,330C600,330,480,330,360,330C240,330,120,330,60,330L0,330Z"/></svg>