<?xml version="1.0" standalone="no"?>
<svg xmlns:xlink="http://www.w3.org/1999/xlink" id="wave" style="transform:rotate(0deg); transition: 0.3s" viewBox="0 0 1440 310" version="1.1" xmlns="http://www.w3.org/2000/svg"><defs><linearGradient id="sw-gradient-0" x1="0" x2="0" y1="1" y2="0"><stop stop-color="rgba(250, 247, 245, 1)" offset="0%"/><stop stop-color="rgba(250, 247, 245, 1)" offset="100%"/></linearGradient></defs><path style="transform:translate(0, 0px); opacity:1" fill="url(#sw-gradient-0)" d="M0,217L48,201.5C96,186,192,155,288,149.8C384,145,480,165,576,180.8C672,196,768,207,864,217C960,227,1056,238,1152,227.3C1248,217,1344,186,1440,180.8C1536,176,1632,196,1728,206.7C1824,217,1920,217,2016,201.5C2112,186,2208,155,2304,118.8C2400,83,2496,41,2592,62C2688,83,2784,165,2880,165.3C2976,165,3072,83,3168,62C3264,41,3360,83,3456,124C3552,165,3648,207,3744,232.5C3840,258,3936,269,4032,268.7C4128,269,4224,258,4320,258.3C4416,258,4512,269,4608,237.7C4704,207,4800,134,4896,93C4992,52,5088,41,5184,56.8C5280,72,5376,114,5472,108.5C5568,103,5664,52,5760,62C5856,72,5952,145,6048,160.2C6144,176,6240,134,6336,124C6432,114,6528,134,6624,129.2C6720,124,6816,93,6864,77.5L6912,62L6912,310L6864,310C6816,310,6720,310,6624,310C6528,310,6432,310,6336,310C6240,310,6144,310,6048,310C5952,310,5856,310,5760,310C5664,310,5568,310,5472,310C5376,310,5280,310,5184,310C5088,310,4992,310,4896,310C4800,310,4704,310,4608,310C4512,310,4416,310,4320,310C4224,310,4128,310,4032,310C3936,310,3840,310,3744,310C3648,310,3552,310,3456,310C3360,310,3264,310,3168,310C3072,310,2976,310,2880,310C2784,310,2688,310,2592,310C2496,310,2400,310,2304,310C2208,310,2112,310,2016,310C1920,310,1824,310,1728,310C1632,310,1536,310,1440,310C1344,310,1248,310,1152,310C1056,310,960,310,864,310C768,310,672,310,576,310C480,310,384,310,288,310C192,310,96,310,48,310L0,310Z"/></svg>